<svg width="21" height="25" viewBox="0 0 21 25" fill="none" xmlns="http://www.w3.org/2000/svg">
<circle cx="8.23808" cy="5.42857" r="4.42857" stroke="#263473" stroke-width="2"/>
<path d="M1 19.9048L2.93878 12.6667H6.17007C6.38549 13.3248 7.20408 14.6408 8.7551 14.6408C10.3061 14.6408 10.6939 13.3248 10.6939 12.6667H13.9252L14.5714 14.6408" stroke="#263473" stroke-width="2"/>
<path d="M19.3721 17.857C19.1731 17.6457 18.9369 17.478 18.6769 17.3637C18.4169 17.2493 18.1382 17.1904 17.8568 17.1904C17.5753 17.1904 17.2966 17.2493 17.0366 17.3637C16.7766 17.478 16.5404 17.6457 16.3414 17.857L15.9285 18.2954L15.5155 17.857C15.1136 17.4303 14.5686 17.1907 14.0002 17.1907C13.4318 17.1907 12.8867 17.4303 12.4848 17.857C12.0829 18.2836 11.8571 18.8623 11.8571 19.4657C11.8571 20.0691 12.0829 20.6477 12.4848 21.0744L12.8978 21.5127L15.9286 23.9761L18.9592 21.5127L19.3721 21.0744C19.5712 20.8632 19.7291 20.6124 19.8368 20.3363C19.9446 20.0603 20 19.7645 20 19.4657C20 19.1669 19.9446 18.871 19.8368 18.595C19.7291 18.319 19.5712 18.0682 19.3721 17.857Z" stroke="#263473" stroke-width="1.75" stroke-linecap="round" stroke-linejoin="round"/>
</svg>
