<svg width="48" height="48" viewBox="0 0 48 48" fill="none" xmlns="http://www.w3.org/2000/svg">
<circle cx="24" cy="24" r="24" fill="#E75A77"/>
<path d="M14.2194 18.1544L23.9908 27.6545L24.0185 27.6817C24.2851 27.9445 24.714 27.9446 24.9808 27.6821C24.981 27.682 24.9811 27.6818 24.9812 27.6817L34.7798 18.1552V30.7834H14.2194V18.1544ZM13.8024 15.85C13.2847 15.85 12.85 16.2828 12.85 16.8V31.2C12.85 31.7172 13.2847 32.15 13.8024 32.15H35.1976C35.7153 32.15 36.15 31.7172 36.15 31.2V16.8C36.15 16.2828 35.7153 15.85 35.1976 15.85H13.8024ZM24.5002 26.2407L15.2166 17.2166H33.7834L24.5002 26.2407Z" fill="white" stroke="white" stroke-width="0.3"/>
<rect x="22" y="20" width="5" height="1.5" rx="0.75" fill="white"/>
</svg>
