<svg width="48" height="48" viewBox="0 0 48 48" fill="none" xmlns="http://www.w3.org/2000/svg">
<circle cx="24" cy="24" r="24" fill="#E75A77"/>
<path d="M22.3363 28.4278C22.1794 28.3109 22.0025 28.169 21.8103 28.0021C21.258 27.5224 20.6958 26.9397 20.1584 26.2523C19.621 25.565 19.1913 24.8796 18.8597 24.2292C18.7442 24.0028 18.6494 23.7976 18.574 23.6176C18.5297 23.5119 18.5022 23.4398 18.4903 23.4053C18.2975 22.9684 18.4495 22.3805 18.8059 22.1017L22.3363 28.4278ZM22.3363 28.4278C22.4284 28.4966 22.492 28.5407 22.5446 28.5762L22.3363 28.4278ZM31.5922 30.9662L31.5922 30.9662L27.9616 27.1712L27.9615 27.1712C27.3128 26.4934 26.2101 26.4109 25.471 26.9889L23.7061 28.369C23.5816 28.4663 23.3987 28.5245 23.2017 28.526C23.0047 28.5275 22.8213 28.4722 22.6957 28.377L22.6959 28.3767L22.6845 28.369C22.6348 28.3354 22.5744 28.2935 22.4858 28.2275L22.4857 28.2274C22.3341 28.1144 22.1621 27.9765 21.9742 27.8133L21.9742 27.8133C21.4341 27.3443 20.883 26.7731 20.3554 26.0983C19.8277 25.4235 19.4067 24.7516 19.0824 24.1156L19.0824 24.1156C18.9694 23.8942 18.8774 23.6947 18.8046 23.521L18.8046 23.521C18.7611 23.4172 18.736 23.3509 18.7267 23.324L18.7233 23.314L18.719 23.3043C18.6486 23.1447 18.6374 22.9463 18.6848 22.7542C18.7325 22.5615 18.8336 22.3974 18.96 22.2986L20.7248 20.9186C21.4641 20.3405 21.6503 19.2513 21.1483 18.4576C21.1483 18.4576 21.1483 18.4576 21.1483 18.4576L18.3412 14.0188L18.3412 14.0188C17.8142 13.1854 16.7285 12.9927 15.9513 13.6004L13.1578 15.7847C12.5119 16.2898 12.2007 17.1614 12.119 18.1867C12.0368 19.219 12.1825 20.4544 12.5 21.7535C13.1351 24.3514 14.4711 27.2571 16.1413 29.3934L16.1413 29.3934C17.8115 31.5294 20.3092 33.5266 22.6773 34.7695C23.8615 35.391 25.0253 35.8304 26.0469 35.9995C27.0616 36.1675 27.9825 36.0758 28.6284 35.5709L28.4796 35.3806L28.6284 35.5708L31.4218 33.3865L31.4219 33.3865C32.1998 32.778 32.2744 31.6794 31.5922 30.9662ZM30.6919 31.8275L30.6919 31.8275C30.8675 32.011 30.8485 32.2531 30.6544 32.405L27.8609 34.5893C27.5042 34.8682 26.8762 34.9341 26.0084 34.7465C25.1556 34.562 24.1361 34.1461 23.066 33.5592C20.9255 32.3852 18.63 30.5534 17.1229 28.6259C15.6156 26.6981 14.3914 24.0286 13.7684 21.6681C13.4569 20.4881 13.2992 19.3984 13.3259 18.5263C13.3531 17.6389 13.5685 17.0453 13.9253 16.7663L16.7188 14.582L16.7189 14.5819C16.912 14.4308 17.1529 14.4708 17.2882 14.6848C17.2882 14.6848 17.2882 14.6848 17.2882 14.6848L20.0954 19.1236C20.2563 19.3782 20.1906 19.7547 19.9573 19.9372C19.9573 19.9372 19.9573 19.9372 19.9573 19.9372L18.1925 21.317L18.1924 21.3171C17.4835 21.8714 17.2028 22.9401 17.5632 23.7678C17.5796 23.8166 17.6147 23.9054 17.6553 24.0024L17.6554 24.0026C17.7406 24.2054 17.8458 24.4333 17.9724 24.6816L17.9724 24.6816C18.3324 25.3873 18.7959 26.1265 19.3738 26.8657L19.3738 26.8658C19.9519 27.6049 20.5581 28.2336 21.1572 28.754C21.3681 28.9373 21.5642 29.0945 21.741 29.2264L21.7412 29.2265C21.843 29.3023 21.9214 29.3573 21.972 29.3905C22.6692 29.9148 23.7688 29.9014 24.4735 29.3503C24.4735 29.3503 24.4735 29.3503 24.4735 29.3503L26.2384 27.9704L26.2384 27.9704C26.4713 27.7883 26.8534 27.8155 27.0612 28.0326L30.6919 31.8275Z" fill="white" stroke="white" stroke-width="0.5"/>
<path d="M28.4934 22.4568C29.4581 21.492 29.4581 19.9278 28.4934 18.9631C27.5286 17.9983 25.9644 17.9983 24.9996 18.9631" stroke="white" stroke-width="1.5" stroke-linecap="round"/>
<path d="M31.4857 22.9992C33.4266 21.0583 33.4266 17.9115 31.4857 15.9706C29.5448 14.0297 26.3979 14.0297 24.457 15.9706" stroke="white" stroke-width="1.5" stroke-linecap="round"/>
</svg>
