<svg width="36" height="36" viewBox="0 0 36 36" fill="none" xmlns="http://www.w3.org/2000/svg">
<rect width="36" height="36" rx="18" fill="#006699"/>
<path d="M13.859 25.2948V15.5702H10.6295V25.2948H13.8593H13.859ZM12.2449 14.2426C13.3709 14.2426 14.0718 13.4959 14.0718 12.5627C14.0508 11.6082 13.3709 10.8823 12.2663 10.8823C11.161 10.8823 10.4392 11.6082 10.4392 12.5626C10.4392 13.4958 11.1399 14.2426 12.2238 14.2426H12.2447L12.2449 14.2426ZM15.6465 25.2948H18.8757V19.8647C18.8757 19.5744 18.8968 19.2834 18.9821 19.0761C19.2154 18.4952 19.7468 17.8938 20.6391 17.8938C21.8074 17.8938 22.275 18.7855 22.275 20.0929V25.2948H25.5041V19.719C25.5041 16.7321 23.9112 15.3422 21.7865 15.3422C20.0446 15.3422 19.2795 16.3166 18.8545 16.9803H18.876V15.5705H15.6467C15.6888 16.4828 15.6464 25.2951 15.6464 25.2951L15.6465 25.2948Z" fill="white"/>
</svg>
