<svg width="85" height="85" viewBox="0 0 85 85" fill="none" xmlns="http://www.w3.org/2000/svg">
<circle cx="42.5" cy="42.5" r="42.5" fill="#E75A77"/>
<mask id="mask0_497_3024" style="mask-type:alpha" maskUnits="userSpaceOnUse" x="0" y="0" width="85" height="85">
<path d="M85 42.5C85 65.9721 65.9721 85 42.5 85C19.0279 85 0 65.9721 0 42.5C0 19.0279 19.0279 0 42.5 0C65.9721 0 85 19.0279 85 42.5Z" fill="#381D54"/>
</mask>
<g mask="url(#mask0_497_3024)">
<path d="M65.833 7.22266C31.3886 26.7782 21.1108 62.593 20.2775 78.056C47.2219 94.4449 68.6108 78.6115 76.9442 67.5004C95.6108 36.6115 77.3145 14.4449 65.833 7.22266Z" fill="white" fill-opacity="0.1"/>
</g>
<path d="M47.001 51.5239C46.9885 51.5364 46.9754 51.5494 46.9616 51.563C46.8125 51.7109 46.5949 51.9267 46.4399 52.2004C46.285 52.4741 46.2119 52.7717 46.1618 52.9757C46.157 52.9954 46.1523 53.0142 46.1479 53.032L45.1005 57.2213C45.0977 57.2327 45.0947 57.2448 45.0914 57.2575C45.0554 57.4006 44.9997 57.6219 44.9801 57.8214C44.9574 58.0541 44.9456 58.6015 45.3941 59.05C45.8425 59.4985 46.3899 59.4867 46.6226 59.4639C46.8221 59.4444 47.0435 59.3886 47.1865 59.3526C47.1992 59.3494 47.2113 59.3463 47.2227 59.3435L51.4121 58.2962L51.1089 57.0835L51.4121 58.2962C51.4299 58.2917 51.4487 58.2871 51.4683 58.2823C51.6723 58.2322 51.97 58.1591 52.2436 58.0041C52.5173 57.8491 52.7331 57.6316 52.881 57.4824C52.8953 57.468 52.9089 57.4543 52.9219 57.4413L52.038 56.5574L52.9219 57.4413L63.5702 46.793C63.5849 46.7783 63.5996 46.7637 63.6143 46.7489C63.909 46.4544 64.2115 46.1521 64.4301 45.8656C64.6816 45.5359 64.9363 45.0852 64.9363 44.4949C64.9363 43.9046 64.6816 43.4539 64.4301 43.1242C64.2115 42.8378 63.909 42.5354 63.6143 42.2409C63.5996 42.2262 63.5849 42.2115 63.5702 42.1968L62.2472 40.8738C62.2326 40.8592 62.2179 40.8445 62.2032 40.8298C61.9086 40.5351 61.6063 40.2325 61.3198 40.0139C60.9902 39.7624 60.5394 39.5077 59.9491 39.5077C59.3588 39.5077 58.9081 39.7624 58.5785 40.0139C58.292 40.2325 57.9896 40.5351 57.6951 40.8298C57.6804 40.8445 57.6657 40.8592 57.651 40.8738L47.0027 51.5221C47.0022 51.5227 47.0016 51.5233 47.001 51.5239Z" stroke="white" stroke-width="2.5"/>
<path d="M56.4548 42.2924L60.7272 39.4441L64.9997 43.7166L62.1514 47.9891L56.4548 42.2924Z" fill="white"/>
<path d="M36.1108 33.8887L42.7775 33.8887" stroke="white" stroke-width="2.5" stroke-linecap="round"/>
<path d="M36.1108 47.2219L41.1108 47.2219" stroke="white" stroke-width="2.5" stroke-linecap="round"/>
<path d="M36.1108 40.5559L46.1108 40.5559" stroke="white" stroke-width="2.5" stroke-linecap="round"/>
<path d="M52.7775 40.5555V33.2222C52.7775 30.3937 52.7775 28.9795 51.8988 28.1008C51.0202 27.2222 49.6059 27.2222 46.7775 27.2222H35.4442C32.6158 27.2222 31.2015 27.2222 30.3229 28.1008C29.4442 28.9795 29.4442 30.3937 29.4442 33.2222V51.2222C29.4442 54.0506 29.4442 55.4648 30.3229 56.3435C31.2015 57.2222 32.6158 57.2222 35.4442 57.2222H41.1108" stroke="white" stroke-width="2.5"/>
</svg>
