<svg width="120" height="204" viewBox="0 0 120 204" fill="none" xmlns="http://www.w3.org/2000/svg">
<path d="M166.275 108.496L165.787 108.416L95.2395 96.7664L94.7511 96.6858L42.6022 88.0676C42.0518 88.4497 41.5048 88.8539 40.9719 89.2604L94.5103 98.1009L94.9986 98.1815L165.546 109.831L166.034 109.911L178.09 111.902C179.051 111.595 180 111.271 180.954 110.92L166.261 108.494L166.275 108.496Z" fill="url(#paint0_linear_564_1591)"/>
<path d="M168.621 94.292L168.132 94.2114L97.5849 82.5623L97.0966 82.4816L84.762 80.4449C81.9581 80.4979 79.1217 80.4882 76.2667 80.5042L96.8616 83.9049L97.3499 83.9855L167.897 95.6346L168.386 95.7152L196.529 100.362C196.884 99.9481 197.248 99.5279 197.601 99.0774L168.621 94.292Z" fill="url(#paint1_linear_564_1591)"/>
<path d="M170.968 80.0736L170.48 79.993L116.495 71.0788C115.988 71.5038 115.485 71.901 114.971 72.2819L170.239 81.4081L170.728 81.4887L204.397 87.0483C204.573 86.59 204.735 86.1294 204.889 85.6747L170.968 80.0736Z" fill="url(#paint2_linear_564_1591)"/>
<path d="M167.448 101.394L166.96 101.313L96.4122 89.6643L95.9238 89.5837L54.0782 82.674C53.0696 82.9661 52.0843 83.2908 51.1305 83.6421L95.683 90.9988L96.1714 91.0794L166.719 102.729L167.207 102.809L189.644 106.514C190.2 106.14 190.753 105.744 191.294 105.332L167.448 101.394Z" fill="url(#paint3_linear_564_1591)"/>
<path d="M169.793 87.1897L169.305 87.1091L106.984 76.8112C106.078 77.1776 105.168 77.5219 104.252 77.822L169.064 88.5242L169.553 88.6048L201.17 93.8257C201.43 93.3812 201.682 92.9426 201.922 92.4877L169.788 87.1816L169.793 87.1897Z" fill="url(#paint4_linear_564_1591)"/>
<path d="M90.5404 125.181L90.052 125.1L24.8487 114.334C24.7227 114.793 24.6025 115.261 24.4823 115.728L89.8112 126.515L90.2995 126.596L131.447 133.391C131.71 132.932 131.975 132.496 132.246 132.068L90.5264 125.179L90.5404 125.181Z" fill="url(#paint5_linear_564_1591)"/>
<path d="M92.3975 110.896L30.7046 100.702C30.4309 101.144 30.1654 101.58 29.9115 102.033L92.1566 112.311L92.645 112.392L144.16 120.898C144.899 120.504 145.639 120.146 146.404 119.807L92.88 110.969L92.3917 110.888L92.3975 110.896Z" fill="url(#paint6_linear_564_1591)"/>
<path d="M93.5702 103.794L35.5889 94.2125C35.2117 94.6304 34.8404 95.0564 34.4748 95.4906L93.3294 105.209L93.8178 105.29L159.161 116.079C160.509 115.815 161.871 115.552 163.247 115.292L94.0528 103.866L93.5644 103.786L93.5702 103.794Z" fill="url(#paint7_linear_564_1591)"/>
<path d="M83.5097 167.802L83.0214 167.722L30.6411 159.072C30.9732 159.622 31.3274 160.168 31.6898 160.708L82.7864 169.145L83.2747 169.225L105.907 172.963C106.396 172.563 106.865 172.153 107.328 171.735L83.5097 167.802Z" fill="url(#paint8_linear_564_1591)"/>
<path d="M85.8552 153.598L85.3669 153.517L24.3356 143.44C24.4526 143.946 24.5836 144.455 24.7145 144.964L85.1318 154.94L85.6202 155.021L117.015 160.205C117.303 159.765 117.582 159.331 117.864 158.883L85.8552 153.598Z" fill="url(#paint9_linear_564_1591)"/>
<path d="M82.337 174.904L81.8486 174.824L37.1984 167.451C37.7934 168.058 38.4069 168.639 39.0227 169.207L81.6078 176.239L82.0962 176.319L96.7331 178.736C97.4789 178.387 98.213 178.02 98.9273 177.644L82.337 174.904Z" fill="url(#paint10_linear_564_1591)"/>
<path d="M84.6825 160.7L84.1941 160.62L26.7209 151.129C26.9275 151.658 27.1421 152.181 27.365 152.698L83.9591 162.043L84.4475 162.123L112.2 166.706C112.558 166.278 112.907 165.855 113.25 165.425L84.6883 160.708L84.6825 160.7Z" fill="url(#paint11_linear_564_1591)"/>
<path d="M87.028 146.496L86.5396 146.415L23.0944 135.939C23.1417 136.434 23.2029 136.931 23.2583 137.421L86.2988 147.83L86.7871 147.911L121.014 153.563C121.26 153.116 121.512 152.677 121.752 152.222L87.0221 146.488L87.028 146.496Z" fill="url(#paint12_linear_564_1591)"/>
<path d="M87.7065 139.305L22.8102 128.589C22.8016 129.075 22.7931 129.561 22.7985 130.049L87.4715 140.728L87.9599 140.809L124.587 146.857C124.819 146.408 125.043 145.964 125.268 145.507L88.1949 139.386L87.7065 139.305Z" fill="url(#paint13_linear_564_1591)"/>
<path d="M88.8793 132.203L23.3969 121.39C23.3325 121.867 23.2682 122.343 23.2119 122.814L88.6442 133.626L89.1326 133.706L127.978 140.121C128.202 139.678 128.428 139.22 128.652 138.777L89.3595 132.289L88.8711 132.208L88.8793 132.203Z" fill="url(#paint14_linear_564_1591)"/>
<path d="M91.4862 119.496L136.248 126.888C136.664 126.455 137.077 126.035 137.502 125.633L91.7212 118.073L91.2329 117.992L27.2354 107.432C27.0454 107.888 26.8555 108.344 26.6795 108.802L90.9897 119.422L91.4781 119.502L91.4862 119.496Z" fill="url(#paint15_linear_564_1591)"/>
<path d="M84.234 182.513L81.1643 182.007L80.6759 181.926L49.7894 176.833C51.3181 177.644 52.8839 178.405 54.4798 179.07L78.9816 183.115C80.7345 183.003 82.4872 182.806 84.2258 182.519L84.234 182.513Z" fill="url(#paint16_linear_564_1591)"/>
<defs>
<linearGradient id="paint0_linear_564_1591" x1="148.023" y1="180.601" x2="86.1454" y2="46.1837" gradientUnits="userSpaceOnUse">
<stop stop-color="#FDFAF9" stop-opacity="0"/>
<stop offset="0.11" stop-color="#FAEFD4" stop-opacity="0.22"/>
<stop offset="0.23" stop-color="#F7E4AB" stop-opacity="0.45"/>
<stop offset="0.36" stop-color="#F5DB8A" stop-opacity="0.65"/>
<stop offset="0.48" stop-color="#F3D470" stop-opacity="0.8"/>
<stop offset="0.59" stop-color="#F2CF5D" stop-opacity="0.91"/>
<stop offset="0.69" stop-color="#F1CC51" stop-opacity="0.98"/>
<stop offset="0.76" stop-color="#F1CB4E"/>
</linearGradient>
<linearGradient id="paint1_linear_564_1591" x1="173.372" y1="168.935" x2="111.495" y2="34.5179" gradientUnits="userSpaceOnUse">
<stop stop-color="#FDFAF9" stop-opacity="0"/>
<stop offset="0.11" stop-color="#FAEFD4" stop-opacity="0.22"/>
<stop offset="0.23" stop-color="#F7E4AB" stop-opacity="0.45"/>
<stop offset="0.36" stop-color="#F5DB8A" stop-opacity="0.65"/>
<stop offset="0.48" stop-color="#F3D470" stop-opacity="0.8"/>
<stop offset="0.59" stop-color="#F2CF5D" stop-opacity="0.91"/>
<stop offset="0.69" stop-color="#F1CC51" stop-opacity="0.98"/>
<stop offset="0.76" stop-color="#F1CB4E"/>
</linearGradient>
<linearGradient id="paint2_linear_564_1591" x1="196.441" y1="158.311" x2="134.564" y2="23.8943" gradientUnits="userSpaceOnUse">
<stop stop-color="#FDFAF9" stop-opacity="0"/>
<stop offset="0.11" stop-color="#FAEFD4" stop-opacity="0.22"/>
<stop offset="0.23" stop-color="#F7E4AB" stop-opacity="0.45"/>
<stop offset="0.36" stop-color="#F5DB8A" stop-opacity="0.65"/>
<stop offset="0.48" stop-color="#F3D470" stop-opacity="0.8"/>
<stop offset="0.59" stop-color="#F2CF5D" stop-opacity="0.91"/>
<stop offset="0.69" stop-color="#F1CC51" stop-opacity="0.98"/>
<stop offset="0.76" stop-color="#F1CB4E"/>
</linearGradient>
<linearGradient id="paint3_linear_564_1591" x1="158.608" y1="175.73" x2="96.7303" y2="41.3132" gradientUnits="userSpaceOnUse">
<stop stop-color="#FDFAF9" stop-opacity="0"/>
<stop offset="0.11" stop-color="#FAEFD4" stop-opacity="0.22"/>
<stop offset="0.23" stop-color="#F7E4AB" stop-opacity="0.45"/>
<stop offset="0.36" stop-color="#F5DB8A" stop-opacity="0.65"/>
<stop offset="0.48" stop-color="#F3D470" stop-opacity="0.8"/>
<stop offset="0.59" stop-color="#F2CF5D" stop-opacity="0.91"/>
<stop offset="0.69" stop-color="#F1CC51" stop-opacity="0.98"/>
<stop offset="0.76" stop-color="#F1CB4E"/>
</linearGradient>
<linearGradient id="paint4_linear_564_1591" x1="188.455" y1="161.989" x2="126.578" y2="27.5723" gradientUnits="userSpaceOnUse">
<stop stop-color="#FDFAF9" stop-opacity="0"/>
<stop offset="0.11" stop-color="#FAEFD4" stop-opacity="0.22"/>
<stop offset="0.23" stop-color="#F7E4AB" stop-opacity="0.45"/>
<stop offset="0.36" stop-color="#F5DB8A" stop-opacity="0.65"/>
<stop offset="0.48" stop-color="#F3D470" stop-opacity="0.8"/>
<stop offset="0.59" stop-color="#F2CF5D" stop-opacity="0.91"/>
<stop offset="0.69" stop-color="#F1CC51" stop-opacity="0.98"/>
<stop offset="0.76" stop-color="#F1CB4E"/>
</linearGradient>
<linearGradient id="paint5_linear_564_1591" x1="112.087" y1="197.147" x2="50.2095" y2="62.7302" gradientUnits="userSpaceOnUse">
<stop stop-color="#FDFAF9" stop-opacity="0"/>
<stop offset="0.11" stop-color="#FAEFD4" stop-opacity="0.22"/>
<stop offset="0.23" stop-color="#F7E4AB" stop-opacity="0.45"/>
<stop offset="0.36" stop-color="#F5DB8A" stop-opacity="0.65"/>
<stop offset="0.48" stop-color="#F3D470" stop-opacity="0.8"/>
<stop offset="0.59" stop-color="#F2CF5D" stop-opacity="0.91"/>
<stop offset="0.69" stop-color="#F1CC51" stop-opacity="0.98"/>
<stop offset="0.76" stop-color="#F1CB4E"/>
</linearGradient>
<linearGradient id="paint6_linear_564_1591" x1="125.097" y1="191.157" x2="63.2193" y2="56.7398" gradientUnits="userSpaceOnUse">
<stop stop-color="#FDFAF9" stop-opacity="0"/>
<stop offset="0.11" stop-color="#FAEFD4" stop-opacity="0.22"/>
<stop offset="0.23" stop-color="#F7E4AB" stop-opacity="0.45"/>
<stop offset="0.36" stop-color="#F5DB8A" stop-opacity="0.65"/>
<stop offset="0.48" stop-color="#F3D470" stop-opacity="0.8"/>
<stop offset="0.59" stop-color="#F2CF5D" stop-opacity="0.91"/>
<stop offset="0.69" stop-color="#F1CC51" stop-opacity="0.98"/>
<stop offset="0.76" stop-color="#F1CB4E"/>
</linearGradient>
<linearGradient id="paint7_linear_564_1591" x1="136.034" y1="186.121" x2="74.1558" y2="51.7042" gradientUnits="userSpaceOnUse">
<stop stop-color="#FDFAF9" stop-opacity="0"/>
<stop offset="0.11" stop-color="#FAEFD4" stop-opacity="0.22"/>
<stop offset="0.23" stop-color="#F7E4AB" stop-opacity="0.45"/>
<stop offset="0.36" stop-color="#F5DB8A" stop-opacity="0.65"/>
<stop offset="0.48" stop-color="#F3D470" stop-opacity="0.8"/>
<stop offset="0.59" stop-color="#F2CF5D" stop-opacity="0.91"/>
<stop offset="0.69" stop-color="#F1CC51" stop-opacity="0.98"/>
<stop offset="0.76" stop-color="#F1CB4E"/>
</linearGradient>
<linearGradient id="paint8_linear_564_1591" x1="88.5698" y1="207.97" x2="26.692" y2="73.5535" gradientUnits="userSpaceOnUse">
<stop stop-color="#FDFAF9" stop-opacity="0"/>
<stop offset="0.11" stop-color="#FAEFD4" stop-opacity="0.22"/>
<stop offset="0.23" stop-color="#F7E4AB" stop-opacity="0.45"/>
<stop offset="0.36" stop-color="#F5DB8A" stop-opacity="0.65"/>
<stop offset="0.48" stop-color="#F3D470" stop-opacity="0.8"/>
<stop offset="0.59" stop-color="#F2CF5D" stop-opacity="0.91"/>
<stop offset="0.69" stop-color="#F1CC51" stop-opacity="0.98"/>
<stop offset="0.76" stop-color="#F1CB4E"/>
</linearGradient>
<linearGradient id="paint9_linear_564_1591" x1="95.6012" y1="204.733" x2="33.7235" y2="70.3158" gradientUnits="userSpaceOnUse">
<stop stop-color="#FDFAF9" stop-opacity="0"/>
<stop offset="0.11" stop-color="#FAEFD4" stop-opacity="0.22"/>
<stop offset="0.23" stop-color="#F7E4AB" stop-opacity="0.45"/>
<stop offset="0.36" stop-color="#F5DB8A" stop-opacity="0.65"/>
<stop offset="0.48" stop-color="#F3D470" stop-opacity="0.8"/>
<stop offset="0.59" stop-color="#F2CF5D" stop-opacity="0.91"/>
<stop offset="0.69" stop-color="#F1CC51" stop-opacity="0.98"/>
<stop offset="0.76" stop-color="#F1CB4E"/>
</linearGradient>
<linearGradient id="paint10_linear_564_1591" x1="85.1034" y1="209.567" x2="23.2256" y2="75.1501" gradientUnits="userSpaceOnUse">
<stop stop-color="#FDFAF9" stop-opacity="0"/>
<stop offset="0.11" stop-color="#FAEFD4" stop-opacity="0.22"/>
<stop offset="0.23" stop-color="#F7E4AB" stop-opacity="0.45"/>
<stop offset="0.36" stop-color="#F5DB8A" stop-opacity="0.65"/>
<stop offset="0.48" stop-color="#F3D470" stop-opacity="0.8"/>
<stop offset="0.59" stop-color="#F2CF5D" stop-opacity="0.91"/>
<stop offset="0.69" stop-color="#F1CC51" stop-opacity="0.98"/>
<stop offset="0.76" stop-color="#F1CB4E"/>
</linearGradient>
<linearGradient id="paint11_linear_564_1591" x1="92.0691" y1="206.359" x2="30.2012" y2="71.9438" gradientUnits="userSpaceOnUse">
<stop stop-color="#FDFAF9" stop-opacity="0"/>
<stop offset="0.11" stop-color="#FAEFD4" stop-opacity="0.22"/>
<stop offset="0.23" stop-color="#F7E4AB" stop-opacity="0.45"/>
<stop offset="0.36" stop-color="#F5DB8A" stop-opacity="0.65"/>
<stop offset="0.48" stop-color="#F3D470" stop-opacity="0.8"/>
<stop offset="0.59" stop-color="#F2CF5D" stop-opacity="0.91"/>
<stop offset="0.69" stop-color="#F1CC51" stop-opacity="0.98"/>
<stop offset="0.76" stop-color="#F1CB4E"/>
</linearGradient>
<linearGradient id="paint12_linear_564_1591" x1="99.3075" y1="203.034" x2="37.4298" y2="68.617" gradientUnits="userSpaceOnUse">
<stop stop-color="#FDFAF9" stop-opacity="0"/>
<stop offset="0.11" stop-color="#FAEFD4" stop-opacity="0.22"/>
<stop offset="0.23" stop-color="#F7E4AB" stop-opacity="0.45"/>
<stop offset="0.36" stop-color="#F5DB8A" stop-opacity="0.65"/>
<stop offset="0.48" stop-color="#F3D470" stop-opacity="0.8"/>
<stop offset="0.59" stop-color="#F2CF5D" stop-opacity="0.91"/>
<stop offset="0.69" stop-color="#F1CC51" stop-opacity="0.98"/>
<stop offset="0.76" stop-color="#F1CB4E"/>
</linearGradient>
<linearGradient id="paint13_linear_564_1591" x1="103.236" y1="201.22" x2="41.3578" y2="66.8027" gradientUnits="userSpaceOnUse">
<stop stop-color="#FDFAF9" stop-opacity="0"/>
<stop offset="0.11" stop-color="#FAEFD4" stop-opacity="0.22"/>
<stop offset="0.23" stop-color="#F7E4AB" stop-opacity="0.45"/>
<stop offset="0.36" stop-color="#F5DB8A" stop-opacity="0.65"/>
<stop offset="0.48" stop-color="#F3D470" stop-opacity="0.8"/>
<stop offset="0.59" stop-color="#F2CF5D" stop-opacity="0.91"/>
<stop offset="0.69" stop-color="#F1CC51" stop-opacity="0.98"/>
<stop offset="0.76" stop-color="#F1CB4E"/>
</linearGradient>
<linearGradient id="paint14_linear_564_1591" x1="107.459" y1="199.272" x2="45.58" y2="64.8646" gradientUnits="userSpaceOnUse">
<stop stop-color="#FDFAF9" stop-opacity="0"/>
<stop offset="0.11" stop-color="#FAEFD4" stop-opacity="0.22"/>
<stop offset="0.23" stop-color="#F7E4AB" stop-opacity="0.45"/>
<stop offset="0.36" stop-color="#F5DB8A" stop-opacity="0.65"/>
<stop offset="0.48" stop-color="#F3D470" stop-opacity="0.8"/>
<stop offset="0.59" stop-color="#F2CF5D" stop-opacity="0.91"/>
<stop offset="0.69" stop-color="#F1CC51" stop-opacity="0.98"/>
<stop offset="0.76" stop-color="#F1CB4E"/>
</linearGradient>
<linearGradient id="paint15_linear_564_1591" x1="117.693" y1="194.566" x2="55.815" y2="60.1491" gradientUnits="userSpaceOnUse">
<stop stop-color="#FDFAF9" stop-opacity="0"/>
<stop offset="0.11" stop-color="#FAEFD4" stop-opacity="0.22"/>
<stop offset="0.23" stop-color="#F7E4AB" stop-opacity="0.45"/>
<stop offset="0.36" stop-color="#F5DB8A" stop-opacity="0.65"/>
<stop offset="0.48" stop-color="#F3D470" stop-opacity="0.8"/>
<stop offset="0.59" stop-color="#F2CF5D" stop-opacity="0.91"/>
<stop offset="0.69" stop-color="#F1CC51" stop-opacity="0.98"/>
<stop offset="0.76" stop-color="#F1CB4E"/>
</linearGradient>
<linearGradient id="paint16_linear_564_1591" x1="81.5269" y1="211.216" x2="19.6491" y2="76.7994" gradientUnits="userSpaceOnUse">
<stop stop-color="#FDFAF9" stop-opacity="0"/>
<stop offset="0.11" stop-color="#FAEFD4" stop-opacity="0.22"/>
<stop offset="0.23" stop-color="#F7E4AB" stop-opacity="0.45"/>
<stop offset="0.36" stop-color="#F5DB8A" stop-opacity="0.65"/>
<stop offset="0.48" stop-color="#F3D470" stop-opacity="0.8"/>
<stop offset="0.59" stop-color="#F2CF5D" stop-opacity="0.91"/>
<stop offset="0.69" stop-color="#F1CC51" stop-opacity="0.98"/>
<stop offset="0.76" stop-color="#F1CB4E"/>
</linearGradient>
</defs>
</svg>
