<svg width="160" height="211" viewBox="0 0 160 211" fill="none" xmlns="http://www.w3.org/2000/svg">
<path d="M-12.0286 35.4856L8.89436 113.571C9.41754 113.669 9.9433 113.777 10.4691 113.884L-10.692 34.91C-11.1401 35.0922 -11.5856 35.2841 -12.0286 35.4856Z" fill="url(#paint0_linear_564_1592)"/>
<path d="M-10.0799 70.5769L1.04932 112.112C1.57249 112.21 2.09567 112.308 2.61884 112.405L-17.2378 38.2997C-17.6626 38.5688 -18.0848 38.8476 -18.5045 39.136L-10.0825 70.5672L-10.0799 70.5769Z" fill="url(#paint1_linear_564_1592)"/>
<path d="M38.6027 57.5325L71.0457 178.611C71.6265 178.963 72.2092 179.283 72.8016 179.601L36.8309 45.3562C36.1536 44.6059 35.4719 43.8776 34.7515 43.1595L38.6053 57.5422L38.6027 57.5325Z" fill="url(#paint2_linear_564_1592)"/>
<path d="M24.6934 61.2595L46.6931 143.363C47.9 145.897 49.0594 148.485 50.2503 151.075L18.7003 33.3289C18.1712 33.1705 17.6448 33.0216 17.0919 32.8903L24.6934 61.2595Z" fill="url(#paint3_linear_564_1592)"/>
<path d="M10.7841 64.9864L25.0735 118.315C25.6678 118.601 26.2453 118.902 26.8035 119.208L3.34417 31.6563C2.85464 31.684 2.3703 31.731 1.88595 31.7779L10.7841 64.9864Z" fill="url(#paint4_linear_564_1592)"/>
<path d="M31.6481 59.3959L61.3864 170.381C62.0669 171.182 62.7661 171.937 63.4891 172.664L27.1535 37.0581C26.5823 36.7038 25.9944 36.3644 25.3898 36.0398L31.6455 59.3863L31.6481 59.3959Z" fill="url(#paint5_linear_564_1592)"/>
<path d="M17.7388 63.123L34.2152 124.614C34.9226 125.284 35.6133 125.968 36.2609 126.685L10.8371 31.802C10.3269 31.7524 9.81667 31.7028 9.31162 31.6725L17.7388 63.123Z" fill="url(#paint6_linear_564_1592)"/>
<path d="M3.82948 66.85L16.8248 115.349C17.3706 115.493 17.9093 115.649 18.4383 115.807L-3.83049 32.6989C-4.29931 32.8038 -4.76296 32.928 -5.22919 33.0426L3.82689 66.8403L3.82948 66.85Z" fill="url(#paint7_linear_564_1592)"/>
<path d="M85.0564 119.625L102.291 183.946C102.768 183.87 103.242 183.785 103.716 183.699L75.652 78.9636C75.1321 78.9166 74.6167 78.8476 74.1136 78.7857L85.059 119.635L85.0564 119.625Z" fill="url(#paint8_linear_564_1592)"/>
<path d="M71.2764 123.835L87.4604 184.234C87.9758 184.303 88.486 184.353 88.9988 184.412L59.025 72.5485C58.3712 72.0404 57.7219 71.5103 57.1061 70.9507L71.2738 123.825L71.2764 123.835Z" fill="url(#paint9_linear_564_1592)"/>
<path d="M64.3218 125.699L79.5326 182.466C80.0668 182.644 80.6081 182.809 81.1539 182.953L48.4417 60.8696C47.6346 59.7504 46.8441 58.6163 46.0414 57.4752L64.3218 125.699Z" fill="url(#paint10_linear_564_1592)"/>
<path d="M126.784 108.444L140.652 160.198C141.016 159.666 141.366 159.117 141.706 158.57L122.241 85.9228C121.68 85.6484 121.113 85.3863 120.539 85.1364L126.787 108.454L126.784 108.444Z" fill="url(#paint11_linear_564_1592)"/>
<path d="M112.875 112.171L129.012 172.397C129.424 172.079 129.834 171.752 130.243 171.425L106.03 81.0627C105.512 80.9841 104.994 80.9054 104.479 80.8365L112.878 112.181L112.875 112.171Z" fill="url(#paint12_linear_564_1592)"/>
<path d="M133.739 106.581L145.58 150.772C145.887 149.985 146.169 149.185 146.43 148.38L131.292 91.8832C130.662 91.3481 130.027 90.8348 129.386 90.3338L133.739 106.581Z" fill="url(#paint13_linear_564_1592)"/>
<path d="M119.83 110.308L135.035 167.056C135.424 166.651 135.812 166.247 136.196 165.823L113.943 82.7731C113.416 82.6243 112.87 82.4807 112.337 82.3441L119.83 110.308Z" fill="url(#paint14_linear_564_1592)"/>
<path d="M105.92 114.035L122.692 176.627C123.122 176.377 123.552 176.127 123.977 175.858L98.3329 80.1539C97.8253 80.114 97.3176 80.074 96.81 80.034L105.923 114.044L105.92 114.035Z" fill="url(#paint15_linear_564_1592)"/>
<path d="M99.0951 116.381L116.12 179.92C116.566 179.728 117.011 179.536 117.452 179.325L90.7493 79.6702C90.2468 79.6496 89.7443 79.6289 89.2393 79.5986L99.0951 116.381Z" fill="url(#paint16_linear_564_1592)"/>
<path d="M92.1404 118.245L109.318 182.353C109.779 182.219 110.238 182.076 110.696 181.932L83.2122 79.3604C82.7098 79.3397 82.2073 79.3191 81.7048 79.2984L92.1404 118.245Z" fill="url(#paint17_linear_564_1592)"/>
<path d="M79.4927 121.116L67.75 77.2919C67.1817 77.1026 66.6274 76.8887 66.0925 76.6697L95.0155 184.612C95.5102 184.604 95.9998 184.576 96.4919 184.558L79.4927 121.116Z" fill="url(#paint18_linear_564_1592)"/>
<path d="M139.889 101.713L148.924 135.434C149.031 133.707 149.082 131.965 149.024 130.241L142.595 106.247C141.766 104.699 140.872 103.179 139.889 101.713Z" fill="url(#paint19_linear_564_1592)"/>
<defs>
<linearGradient id="paint0_linear_564_1592" x1="9.77359" y1="114.07" x2="-11.3875" y2="35.0964" gradientUnits="userSpaceOnUse">
<stop stop-color="#FDFAF9" stop-opacity="0"/>
<stop offset="1" stop-color="#F1CB4E"/>
</linearGradient>
<linearGradient id="paint1_linear_564_1592" x1="1.92337" y1="112.592" x2="-17.9332" y2="38.486" gradientUnits="userSpaceOnUse">
<stop stop-color="#FDFAF9" stop-opacity="0"/>
<stop offset="1" stop-color="#F1CB4E"/>
</linearGradient>
<linearGradient id="paint2_linear_564_1592" x1="72.1061" y1="179.787" x2="35.4444" y2="42.9635" gradientUnits="userSpaceOnUse">
<stop stop-color="#FDFAF9" stop-opacity="0"/>
<stop offset="1" stop-color="#F1CB4E"/>
</linearGradient>
<linearGradient id="paint3_linear_564_1592" x1="49.5548" y1="151.262" x2="17.7874" y2="32.7039" gradientUnits="userSpaceOnUse">
<stop stop-color="#FDFAF9" stop-opacity="0"/>
<stop offset="1" stop-color="#F1CB4E"/>
</linearGradient>
<linearGradient id="paint4_linear_564_1592" x1="26.1081" y1="119.394" x2="2.58141" y2="31.5916" gradientUnits="userSpaceOnUse">
<stop stop-color="#FDFAF9" stop-opacity="0"/>
<stop offset="1" stop-color="#F1CB4E"/>
</linearGradient>
<linearGradient id="paint5_linear_564_1592" x1="62.7962" y1="172.86" x2="26.0879" y2="35.8632" gradientUnits="userSpaceOnUse">
<stop stop-color="#FDFAF9" stop-opacity="0"/>
<stop offset="1" stop-color="#F1CB4E"/>
</linearGradient>
<linearGradient id="paint6_linear_564_1592" x1="35.5655" y1="126.871" x2="10.0071" y2="31.4861" gradientUnits="userSpaceOnUse">
<stop stop-color="#FDFAF9" stop-opacity="0"/>
<stop offset="1" stop-color="#F1CB4E"/>
</linearGradient>
<linearGradient id="paint7_linear_564_1592" x1="17.7428" y1="115.993" x2="-4.53113" y2="32.8659" gradientUnits="userSpaceOnUse">
<stop stop-color="#FDFAF9" stop-opacity="0"/>
<stop offset="1" stop-color="#F1CB4E"/>
</linearGradient>
<linearGradient id="paint8_linear_564_1592" x1="103.02" y1="183.885" x2="74.809" y2="78.5994" gradientUnits="userSpaceOnUse">
<stop stop-color="#FDFAF9" stop-opacity="0"/>
<stop offset="1" stop-color="#F1CB4E"/>
</linearGradient>
<linearGradient id="paint9_linear_564_1592" x1="88.3008" y1="184.589" x2="57.8041" y2="70.774" gradientUnits="userSpaceOnUse">
<stop stop-color="#FDFAF9" stop-opacity="0"/>
<stop offset="1" stop-color="#F1CB4E"/>
</linearGradient>
<linearGradient id="paint10_linear_564_1592" x1="80.4584" y1="183.139" x2="46.7369" y2="57.2889" gradientUnits="userSpaceOnUse">
<stop stop-color="#FDFAF9" stop-opacity="0"/>
<stop offset="1" stop-color="#F1CB4E"/>
</linearGradient>
<linearGradient id="paint11_linear_564_1592" x1="141.347" y1="160.012" x2="121.232" y2="84.9404" gradientUnits="userSpaceOnUse">
<stop stop-color="#FDFAF9" stop-opacity="0"/>
<stop offset="1" stop-color="#F1CB4E"/>
</linearGradient>
<linearGradient id="paint12_linear_564_1592" x1="129.708" y1="172.21" x2="105.174" y2="80.6501" gradientUnits="userSpaceOnUse">
<stop stop-color="#FDFAF9" stop-opacity="0"/>
<stop offset="1" stop-color="#F1CB4E"/>
</linearGradient>
<linearGradient id="paint13_linear_564_1592" x1="146.275" y1="150.585" x2="130.081" y2="90.1474" gradientUnits="userSpaceOnUse">
<stop stop-color="#FDFAF9" stop-opacity="0"/>
<stop offset="1" stop-color="#F1CB4E"/>
</linearGradient>
<linearGradient id="paint14_linear_564_1592" x1="135.731" y1="166.869" x2="113.032" y2="82.1577" gradientUnits="userSpaceOnUse">
<stop stop-color="#FDFAF9" stop-opacity="0"/>
<stop offset="1" stop-color="#F1CB4E"/>
</linearGradient>
<linearGradient id="paint15_linear_564_1592" x1="123.387" y1="176.44" x2="97.5029" y2="79.838" gradientUnits="userSpaceOnUse">
<stop stop-color="#FDFAF9" stop-opacity="0"/>
<stop offset="1" stop-color="#F1CB4E"/>
</linearGradient>
<linearGradient id="paint16_linear_564_1592" x1="116.816" y1="179.733" x2="89.9348" y2="79.4123" gradientUnits="userSpaceOnUse">
<stop stop-color="#FDFAF9" stop-opacity="0"/>
<stop offset="1" stop-color="#F1CB4E"/>
</linearGradient>
<linearGradient id="paint17_linear_564_1592" x1="110.014" y1="182.167" x2="82.4003" y2="79.112" gradientUnits="userSpaceOnUse">
<stop stop-color="#FDFAF9" stop-opacity="0"/>
<stop offset="1" stop-color="#F1CB4E"/>
</linearGradient>
<linearGradient id="paint18_linear_564_1592" x1="95.7964" y1="184.744" x2="66.788" y2="76.4834" gradientUnits="userSpaceOnUse">
<stop stop-color="#FDFAF9" stop-opacity="0"/>
<stop offset="1" stop-color="#F1CB4E"/>
</linearGradient>
<linearGradient id="paint19_linear_564_1592" x1="149.62" y1="135.247" x2="140.584" y2="101.527" gradientUnits="userSpaceOnUse">
<stop stop-color="#FDFAF9" stop-opacity="0"/>
<stop offset="1" stop-color="#F1CB4E"/>
</linearGradient>
</defs>
</svg>
