<svg width="49" height="41" viewBox="0 0 49 41" fill="none" xmlns="http://www.w3.org/2000/svg">
<path d="M28.6 40.3C28.1 38.8 27.85 37.55 27.85 36.55C27.85 35.65 28 34.45 28.3 32.95C35 32.95 38.35 29.5 38.35 22.6C38.35 20.1 37.05 18.7 34.45 18.4C30.65 18.1 28.75 15.65 28.75 11.05C28.75 7.55 29.6 4.85 31.3 2.95C32.9 1.15 35.85 0.250003 40.15 0.250003C46.05 0.250003 49 4.25 49 12.25C49 20.25 47.4 26.9 44.2 32.2C41 37.6 35.8 40.3 28.6 40.3ZM1.45 40.3C0.949997 38.8 0.699996 37.55 0.699996 36.55C0.699996 35.65 0.849997 34.45 1.15 32.95C7.85 32.95 11.2 29.5 11.2 22.6C11.2 20.1 9.9 18.7 7.3 18.4C3.5 18.1 1.6 15.65 1.6 11.05C1.6 7.55 2.45 4.85 4.15 2.95C5.75 1.15 8.7 0.250003 13 0.250003C18.9 0.250003 21.85 4.25 21.85 12.25C21.85 20.25 20.25 26.9 17.05 32.2C13.85 37.6 8.65 40.3 1.45 40.3Z" fill="#E75A77"/>
</svg>
