<svg width="36" height="36" viewBox="0 0 36 36" fill="none" xmlns="http://www.w3.org/2000/svg">
<rect width="36" height="36" rx="18" fill="#33CCFF"/>
<path d="M26.9348 12.3005C26.3404 12.5566 25.7155 12.7349 25.0755 12.831C25.3747 12.7797 25.8149 12.2406 25.9902 12.0225C26.2564 11.6934 26.4593 11.3177 26.5886 10.9145C26.5886 10.8845 26.6185 10.8417 26.5886 10.8203C26.5735 10.8121 26.5566 10.8078 26.5394 10.8078C26.5222 10.8078 26.5053 10.8121 26.4903 10.8203C25.7954 11.197 25.0558 11.4844 24.2891 11.6759C24.2623 11.6841 24.2339 11.6848 24.2068 11.6781C24.1797 11.6713 24.1549 11.6572 24.1352 11.6374C24.0755 11.5663 24.0113 11.4991 23.9428 11.4364C23.6301 11.1559 23.2753 10.9264 22.8914 10.7562C22.3732 10.5434 21.8134 10.4512 21.2544 10.4866C20.7119 10.5209 20.1824 10.6666 19.6986 10.9145C19.2221 11.1758 18.8034 11.5309 18.4676 11.9583C18.1143 12.3982 17.8593 12.9088 17.7196 13.4556C17.6044 13.9757 17.5914 14.5133 17.6811 15.0384C17.6811 15.1283 17.6811 15.1411 17.6042 15.1283C14.5567 14.6791 12.0563 13.5968 10.0132 11.2738C9.92345 11.1711 9.87643 11.1711 9.80377 11.2738C8.91474 12.6257 9.34643 14.7647 10.4577 15.8213C10.6073 15.9625 10.7612 16.0994 10.9236 16.2277C10.4141 16.1915 9.91702 16.0533 9.46184 15.8213C9.37635 15.7657 9.32934 15.7957 9.32506 15.8983C9.31294 16.0407 9.31294 16.1838 9.32506 16.3261C9.41424 17.0083 9.68284 17.6545 10.1034 18.1987C10.5239 18.7429 11.0814 19.1655 11.7186 19.4234C11.874 19.49 12.0358 19.5402 12.2016 19.5731C11.7299 19.6661 11.2461 19.6805 10.7697 19.6159C10.6672 19.5945 10.6287 19.6501 10.6672 19.7485C11.2955 21.4597 12.6589 21.9817 13.6591 22.2726C13.7959 22.2939 13.9327 22.2939 14.0865 22.3282C14.0865 22.3282 14.0865 22.3282 14.0609 22.3538C13.766 22.8929 12.5735 23.2565 12.0264 23.4447C11.0278 23.8037 9.96308 23.941 8.90619 23.8469C8.73949 23.8212 8.70103 23.8255 8.65828 23.8469C8.61554 23.8683 8.65828 23.9153 8.7053 23.9581C8.91901 24.0993 9.13272 24.2233 9.35498 24.3431C10.0166 24.7043 10.7162 24.9913 11.4408 25.1987C15.1935 26.234 19.4165 25.4725 22.2332 22.6704C24.4472 20.4715 25.2251 17.4384 25.2251 14.401C25.2251 14.2855 25.3662 14.2171 25.4474 14.1572C26.0075 13.7203 26.5013 13.2045 26.9134 12.6257C26.9848 12.5394 27.0214 12.4295 27.016 12.3176V12.3176C27.016 12.2535 27.016 12.2663 26.9348 12.3005Z" fill="white"/>
</svg>
