<svg width="36" height="36" viewBox="0 0 36 36" fill="none" xmlns="http://www.w3.org/2000/svg">
<rect width="36" height="36" rx="18" fill="#FF0000"/>
<path d="M28.0127 13.0484C27.7777 12.1648 27.0824 11.4677 26.1977 11.2288C24.5982 10.8 18.1804 10.8 18.1804 10.8C18.1804 10.8 11.7658 10.8 10.163 11.2288C9.28162 11.4644 8.5863 12.1615 8.348 13.0484C7.92036 14.652 7.92036 18 7.92036 18C7.92036 18 7.92036 21.348 8.348 22.9517C8.58304 23.8353 9.27835 24.5324 10.163 24.7713C11.7658 25.2 18.1804 25.2 18.1804 25.2C18.1804 25.2 24.5982 25.2 26.1977 24.7713C27.0791 24.5357 27.7744 23.8386 28.0127 22.9517C28.4404 21.348 28.4404 18 28.4404 18C28.4404 18 28.4404 14.652 28.0127 13.0484Z" fill="white"/>
<path d="M16.1303 21.0862L21.4611 18L16.1303 14.9139V21.0862Z" fill="#FF0000"/>
</svg>
